<svg width="15" height="30" viewBox="0 0 15 30" fill="none" xmlns="http://www.w3.org/2000/svg">
<path d="M2.4705 29.4963C1.98721 29.4972 1.51884 29.329 1.14671 29.0209C0.937263 28.8474 0.764133 28.6343 0.637232 28.3938C0.51033 28.1533 0.432151 27.8902 0.407173 27.6195C0.382195 27.3488 0.410909 27.0758 0.49167 26.8162C0.57243 26.5566 0.703649 26.3155 0.877814 26.1066L10.1443 15.0283L1.20876 3.92939C1.03695 3.71797 0.908639 3.47471 0.831215 3.21359C0.75379 2.95247 0.728775 2.67863 0.757607 2.40781C0.786439 2.137 0.868549 1.87454 0.999219 1.63554C1.12989 1.39654 1.30654 1.1857 1.51902 1.01514C1.73304 0.826977 1.98366 0.685052 2.25516 0.598267C2.52667 0.511482 2.8132 0.481712 3.09676 0.510823C3.38033 0.539934 3.65481 0.627299 3.90298 0.767435C4.15116 0.907571 4.36766 1.09745 4.53892 1.32516L14.5294 13.7262C14.8336 14.0961 14.9999 14.5599 14.9999 15.0387C14.9999 15.5174 14.8336 15.9813 14.5294 16.3511L4.18729 28.7522C3.97979 29.0023 3.7162 29.2 3.41791 29.3293C3.11963 29.4586 2.79504 29.5158 2.4705 29.4963Z" fill="#4257A6"/>
</svg>
