<svg width="42" height="41" viewBox="0 0 42 41" fill="none" xmlns="http://www.w3.org/2000/svg">
<path d="M41.5 20.5001C41.5 31.8219 32.3218 41.0001 21 41.0001C9.67816 41.0001 0.5 31.8219 0.5 20.5001C0.5 9.17822 9.67816 6.10352e-05 21 6.10352e-05C32.3218 6.10352e-05 41.5 9.17822 41.5 20.5001ZM4.6 20.5001C4.6 29.5575 11.9425 36.9001 21 36.9001C30.0575 36.9001 37.4 29.5575 37.4 20.5001C37.4 11.4426 30.0575 4.10006 21 4.10006C11.9425 4.10006 4.6 11.4426 4.6 20.5001Z" fill="#FFFCF0"/>
<path d="M21 6.10352e-05C23.6921 6.10673e-05 26.3578 0.530309 28.845 1.56053C31.3322 2.59075 33.5921 4.10077 35.4957 6.00437C37.3993 7.90797 38.9093 10.1679 39.9395 12.6551C40.9698 15.1422 41.5 17.808 41.5 20.5001C41.5 23.1922 40.9697 25.8579 39.9395 28.3451C38.9093 30.8323 37.3993 33.0922 35.4957 34.9958C33.5921 36.8994 31.3322 38.4094 28.845 39.4396C26.3578 40.4698 23.6921 41.0001 21 41.0001L21 36.9001C23.1537 36.9001 25.2863 36.4759 27.276 35.6517C29.2657 34.8275 31.0737 33.6195 32.5965 32.0966C34.1194 30.5737 35.3274 28.7658 36.1516 26.7761C36.9758 24.7863 37.4 22.6537 37.4 20.5001C37.4 18.3464 36.9758 16.2138 36.1516 14.2241C35.3274 12.2343 34.1194 10.4264 32.5966 8.90351C31.0737 7.38063 29.2657 6.17261 27.276 5.34844C25.2863 4.52426 23.1537 4.10006 21 4.10006V6.10352e-05Z" fill="url(#paint0_linear_3552_762)"/>
<path d="M16.724 16.1256H16.9922C16.9836 16.2279 16.955 16.319 16.9064 16.3991C16.8577 16.4785 16.7895 16.541 16.7015 16.5868C16.6136 16.6325 16.5067 16.6554 16.3809 16.6554C16.2843 16.6554 16.1975 16.6383 16.1202 16.6039C16.043 16.5689 15.9769 16.5196 15.9218 16.4559C15.8668 16.3916 15.8246 16.314 15.7953 16.2232C15.7667 16.1324 15.7524 16.0309 15.7524 15.9186V15.7889C15.7524 15.6766 15.767 15.5751 15.7964 15.4843C15.8264 15.3935 15.8693 15.3159 15.925 15.2516C15.9808 15.1865 16.0477 15.1368 16.1256 15.1025C16.2043 15.0682 16.2926 15.051 16.3905 15.051C16.5149 15.051 16.62 15.0739 16.7058 15.1196C16.7916 15.1654 16.8581 15.2287 16.9053 15.3095C16.9532 15.3903 16.9825 15.4828 16.9932 15.5872H16.7251C16.718 15.52 16.7022 15.4625 16.6779 15.4146C16.6543 15.3667 16.6193 15.3302 16.5728 15.3052C16.5264 15.2794 16.4656 15.2666 16.3905 15.2666C16.329 15.2666 16.2754 15.278 16.2296 15.3009C16.1839 15.3238 16.1456 15.3574 16.1149 15.4017C16.0841 15.446 16.0609 15.5007 16.0452 15.5658C16.0302 15.6301 16.0226 15.7038 16.0226 15.7867V15.9186C16.0226 15.9973 16.0294 16.0688 16.043 16.1331C16.0573 16.1968 16.0788 16.2515 16.1074 16.2972C16.1367 16.343 16.1739 16.3784 16.2189 16.4034C16.264 16.4284 16.3179 16.4409 16.3809 16.4409C16.4574 16.4409 16.5192 16.4288 16.5664 16.4045C16.6143 16.3802 16.6504 16.3448 16.6747 16.2983C16.6997 16.2511 16.7162 16.1935 16.724 16.1256ZM17.1616 16.0666V16.042C17.1616 15.9583 17.1738 15.8807 17.1981 15.8092C17.2224 15.737 17.2574 15.6745 17.3032 15.6216C17.3497 15.5679 17.4061 15.5265 17.4726 15.4971C17.5398 15.4671 17.6156 15.4521 17.7 15.4521C17.7851 15.4521 17.8609 15.4671 17.9274 15.4971C17.9946 15.5265 18.0514 15.5679 18.0979 15.6216C18.1444 15.6745 18.1797 15.737 18.2041 15.8092C18.2284 15.8807 18.2405 15.9583 18.2405 16.042V16.0666C18.2405 16.1503 18.2284 16.2279 18.2041 16.2994C18.1797 16.3709 18.1444 16.4334 18.0979 16.487C18.0514 16.54 17.9949 16.5814 17.9284 16.6115C17.8619 16.6408 17.7865 16.6554 17.7021 16.6554C17.6171 16.6554 17.5409 16.6408 17.4737 16.6115C17.4072 16.5814 17.3507 16.54 17.3043 16.487C17.2578 16.4334 17.2224 16.3709 17.1981 16.2994C17.1738 16.2279 17.1616 16.1503 17.1616 16.0666ZM17.4201 16.042V16.0666C17.4201 16.1188 17.4254 16.1682 17.4362 16.2146C17.4469 16.2611 17.4637 16.3019 17.4866 16.3369C17.5095 16.3719 17.5388 16.3995 17.5745 16.4195C17.6103 16.4395 17.6528 16.4495 17.7021 16.4495C17.75 16.4495 17.7915 16.4395 17.8265 16.4195C17.8623 16.3995 17.8916 16.3719 17.9145 16.3369C17.9374 16.3019 17.9542 16.2611 17.9649 16.2146C17.9763 16.1682 17.9821 16.1188 17.9821 16.0666V16.042C17.9821 15.9905 17.9763 15.9419 17.9649 15.8961C17.9542 15.8496 17.937 15.8085 17.9134 15.7728C17.8905 15.737 17.8612 15.7091 17.8255 15.6891C17.7904 15.6684 17.7486 15.658 17.7 15.658C17.6514 15.658 17.6092 15.6684 17.5734 15.6891C17.5384 15.7091 17.5095 15.737 17.4866 15.7728C17.4637 15.8085 17.4469 15.8496 17.4362 15.8961C17.4254 15.9419 17.4201 15.9905 17.4201 16.042ZM18.7156 15.7095V16.634H18.4572V15.4736H18.7006L18.7156 15.7095ZM18.6738 16.0109L18.5859 16.0098C18.5859 15.9297 18.5959 15.8557 18.6159 15.7878C18.6359 15.7199 18.6652 15.6609 18.7038 15.6108C18.7424 15.5601 18.7903 15.5211 18.8475 15.4939C18.9055 15.466 18.9723 15.4521 19.0481 15.4521C19.101 15.4521 19.1493 15.46 19.1929 15.4757C19.2372 15.4907 19.2755 15.5147 19.3076 15.5476C19.3405 15.5804 19.3655 15.6226 19.3827 15.6741C19.4006 15.7256 19.4095 15.7878 19.4095 15.8607V16.634H19.1511V15.8832C19.1511 15.8268 19.1425 15.7824 19.1253 15.7503C19.1089 15.7181 19.0849 15.6952 19.0535 15.6816C19.0227 15.6673 18.9859 15.6602 18.943 15.6602C18.8944 15.6602 18.8529 15.6695 18.8186 15.688C18.785 15.7066 18.7575 15.732 18.736 15.7642C18.7146 15.7964 18.6988 15.8335 18.6888 15.8757C18.6788 15.9179 18.6738 15.963 18.6738 16.0109ZM19.3934 15.9422L19.2722 15.969C19.2722 15.899 19.2819 15.8328 19.3012 15.7706C19.3212 15.7077 19.3502 15.6527 19.3881 15.6055C19.4267 15.5576 19.4742 15.52 19.5307 15.4929C19.5872 15.4657 19.6519 15.4521 19.7248 15.4521C19.7842 15.4521 19.8371 15.4603 19.8836 15.4768C19.9307 15.4925 19.9708 15.5175 20.0037 15.5518C20.0366 15.5862 20.0616 15.6309 20.0787 15.6859C20.0959 15.7402 20.1045 15.806 20.1045 15.8832V16.634H19.8449V15.8822C19.8449 15.8235 19.8364 15.7781 19.8192 15.746C19.8028 15.7138 19.7792 15.6916 19.7484 15.6795C19.7177 15.6666 19.6809 15.6602 19.638 15.6602C19.5979 15.6602 19.5625 15.6677 19.5318 15.6827C19.5018 15.697 19.4764 15.7174 19.4556 15.7438C19.4349 15.7696 19.4192 15.7992 19.4084 15.8328C19.3984 15.8664 19.3934 15.9029 19.3934 15.9422ZM20.63 15.6966V17.0801H20.3715V15.4736H20.6096L20.63 15.6966ZM21.3861 16.043V16.0656C21.3861 16.1499 21.3761 16.2282 21.3561 16.3004C21.3368 16.3719 21.3078 16.4345 21.2692 16.4881C21.2313 16.541 21.1845 16.5821 21.1287 16.6115C21.0729 16.6408 21.0086 16.6554 20.9357 16.6554C20.8634 16.6554 20.8002 16.6422 20.7458 16.6157C20.6922 16.5886 20.6468 16.5503 20.6096 16.501C20.5724 16.4517 20.5424 16.3937 20.5195 16.3272C20.4974 16.26 20.4816 16.1864 20.4723 16.1063V16.0194C20.4816 15.9344 20.4974 15.8571 20.5195 15.7878C20.5424 15.7184 20.5724 15.6587 20.6096 15.6087C20.6468 15.5586 20.6922 15.52 20.7458 15.4929C20.7994 15.4657 20.862 15.4521 20.9335 15.4521C21.0064 15.4521 21.0711 15.4664 21.1276 15.495C21.1841 15.5229 21.2317 15.5629 21.2703 15.6151C21.3089 15.6666 21.3378 15.7288 21.3571 15.8017C21.3764 15.8739 21.3861 15.9544 21.3861 16.043ZM21.1276 16.0656V16.043C21.1276 15.9894 21.1226 15.9397 21.1126 15.894C21.1026 15.8475 21.0869 15.8067 21.0654 15.7717C21.044 15.7367 21.0164 15.7095 20.9828 15.6902C20.95 15.6702 20.9103 15.6602 20.8638 15.6602C20.818 15.6602 20.7787 15.668 20.7458 15.6838C20.7129 15.6988 20.6854 15.7199 20.6632 15.747C20.6411 15.7742 20.6239 15.806 20.6118 15.8425C20.5996 15.8782 20.591 15.9172 20.586 15.9594V16.1674C20.5946 16.2189 20.6093 16.2661 20.63 16.309C20.6507 16.3519 20.68 16.3862 20.7179 16.412C20.7565 16.437 20.8059 16.4495 20.8659 16.4495C20.9124 16.4495 20.9521 16.4395 20.985 16.4195C21.0179 16.3995 21.0447 16.3719 21.0654 16.3369C21.0869 16.3011 21.1026 16.26 21.1126 16.2136C21.1226 16.1671 21.1276 16.1178 21.1276 16.0656ZM21.8826 14.9867V16.634H21.6231V14.9867H21.8826ZM22.6774 16.6554C22.5916 16.6554 22.514 16.6415 22.4446 16.6136C22.376 16.585 22.3174 16.5453 22.2687 16.4946C22.2208 16.4438 22.184 16.3841 22.1583 16.3154C22.1325 16.2468 22.1197 16.1728 22.1197 16.0934V16.0505C22.1197 15.9597 22.1329 15.8775 22.1593 15.8039C22.1858 15.7302 22.2226 15.6673 22.2698 15.6151C22.317 15.5622 22.3728 15.5218 22.4371 15.4939C22.5015 15.466 22.5712 15.4521 22.6462 15.4521C22.7292 15.4521 22.8018 15.466 22.864 15.4939C22.9262 15.5218 22.9776 15.5611 23.0184 15.6119C23.0599 15.662 23.0906 15.7217 23.1106 15.791C23.1314 15.8604 23.1417 15.9369 23.1417 16.0205V16.131H22.2451V15.9454H22.8865V15.9251C22.8851 15.8786 22.8758 15.835 22.8586 15.7942C22.8422 15.7535 22.8168 15.7206 22.7825 15.6956C22.7481 15.6705 22.7024 15.658 22.6452 15.658C22.6023 15.658 22.564 15.6673 22.5304 15.6859C22.4975 15.7038 22.47 15.7299 22.4478 15.7642C22.4257 15.7985 22.4085 15.84 22.3964 15.8886C22.3849 15.9365 22.3792 15.9905 22.3792 16.0505V16.0934C22.3792 16.1442 22.386 16.1914 22.3996 16.235C22.4139 16.2779 22.4346 16.3154 22.4618 16.3476C22.489 16.3798 22.5218 16.4052 22.5605 16.4238C22.5991 16.4416 22.643 16.4506 22.6924 16.4506C22.7546 16.4506 22.81 16.4381 22.8586 16.413C22.9072 16.388 22.9494 16.3526 22.9852 16.3069L23.1214 16.4388C23.0963 16.4752 23.0638 16.5103 23.0238 16.5439C22.9837 16.5768 22.9347 16.6036 22.8768 16.6243C22.8196 16.6451 22.7531 16.6554 22.6774 16.6554ZM23.8753 15.4736V15.6623H23.2211V15.4736H23.8753ZM23.4099 15.1893H23.6683V16.3133C23.6683 16.3491 23.6733 16.3766 23.6833 16.3959C23.6941 16.4145 23.7087 16.427 23.7273 16.4334C23.7459 16.4399 23.7677 16.4431 23.7927 16.4431C23.8106 16.4431 23.8278 16.442 23.8442 16.4399C23.8606 16.4377 23.8739 16.4356 23.8839 16.4334L23.885 16.6308C23.8635 16.6372 23.8385 16.6429 23.8099 16.6479C23.782 16.6529 23.7498 16.6554 23.7134 16.6554C23.654 16.6554 23.6015 16.6451 23.5557 16.6243C23.5099 16.6029 23.4742 16.5682 23.4485 16.5203C23.4227 16.4724 23.4099 16.4088 23.4099 16.3294V15.1893ZM24.5864 16.6554C24.5006 16.6554 24.423 16.6415 24.3536 16.6136C24.285 16.585 24.2264 16.5453 24.1777 16.4946C24.1298 16.4438 24.093 16.3841 24.0673 16.3154C24.0415 16.2468 24.0287 16.1728 24.0287 16.0934V16.0505C24.0287 15.9597 24.0419 15.8775 24.0684 15.8039C24.0948 15.7302 24.1316 15.6673 24.1788 15.6151C24.226 15.5622 24.2818 15.5218 24.3461 15.4939C24.4105 15.466 24.4802 15.4521 24.5553 15.4521C24.6382 15.4521 24.7108 15.466 24.773 15.4939C24.8352 15.5218 24.8866 15.5611 24.9274 15.6119C24.9689 15.662 24.9996 15.7217 25.0196 15.791C25.0404 15.8604 25.0507 15.9369 25.0507 16.0205V16.131H24.1541V15.9454H24.7955V15.9251C24.7941 15.8786 24.7848 15.835 24.7676 15.7942C24.7512 15.7535 24.7258 15.7206 24.6915 15.6956C24.6571 15.6705 24.6114 15.658 24.5542 15.658C24.5113 15.658 24.473 15.6673 24.4394 15.6859C24.4065 15.7038 24.379 15.7299 24.3568 15.7642C24.3347 15.7985 24.3175 15.84 24.3054 15.8886C24.2939 15.9365 24.2882 15.9905 24.2882 16.0505V16.0934C24.2882 16.1442 24.295 16.1914 24.3086 16.235C24.3229 16.2779 24.3436 16.3154 24.3708 16.3476C24.398 16.3798 24.4308 16.4052 24.4695 16.4238C24.5081 16.4416 24.552 16.4506 24.6014 16.4506C24.6636 16.4506 24.719 16.4381 24.7676 16.413C24.8162 16.388 24.8584 16.3526 24.8942 16.3069L25.0304 16.4388C25.0053 16.4752 24.9728 16.5103 24.9328 16.5439C24.8927 16.5768 24.8437 16.6036 24.7858 16.6243C24.7286 16.6451 24.6621 16.6554 24.5864 16.6554ZM25.9602 16.3937V14.9867H26.2197V16.634H25.9849L25.9602 16.3937ZM25.2052 16.0666V16.0441C25.2052 15.9562 25.2155 15.8761 25.2363 15.8039C25.257 15.7309 25.287 15.6684 25.3264 15.6162C25.3657 15.5633 25.4136 15.5229 25.4701 15.495C25.5266 15.4664 25.5902 15.4521 25.661 15.4521C25.731 15.4521 25.7925 15.4657 25.8454 15.4929C25.8984 15.52 25.9434 15.559 25.9806 15.6098C26.0178 15.6598 26.0474 15.7199 26.0696 15.7899C26.0918 15.8593 26.1075 15.9365 26.1168 16.0216V16.0934C26.1075 16.1764 26.0918 16.2522 26.0696 16.3208C26.0474 16.3894 26.0178 16.4488 25.9806 16.4988C25.9434 16.5489 25.898 16.5875 25.8444 16.6147C25.7915 16.6418 25.7296 16.6554 25.6588 16.6554C25.5888 16.6554 25.5255 16.6408 25.469 16.6115C25.4132 16.5821 25.3657 16.541 25.3264 16.4881C25.287 16.4352 25.257 16.373 25.2363 16.3015C25.2155 16.2293 25.2052 16.151 25.2052 16.0666ZM25.4636 16.0441V16.0666C25.4636 16.1195 25.4683 16.1689 25.4776 16.2146C25.4876 16.2604 25.503 16.3008 25.5237 16.3358C25.5444 16.3701 25.5712 16.3973 25.6041 16.4173C25.6377 16.4366 25.6778 16.4463 25.7243 16.4463C25.7829 16.4463 25.8311 16.4334 25.869 16.4077C25.9069 16.3819 25.9366 16.3473 25.9581 16.3036C25.9802 16.2593 25.9952 16.21 26.0031 16.1556V15.9615C25.9988 15.9193 25.9899 15.88 25.9763 15.8436C25.9634 15.8071 25.9459 15.7753 25.9237 15.7481C25.9016 15.7202 25.874 15.6988 25.8412 15.6838C25.809 15.668 25.7707 15.6602 25.7264 15.6602C25.6792 15.6602 25.6392 15.6702 25.6063 15.6902C25.5734 15.7102 25.5462 15.7377 25.5248 15.7728C25.504 15.8078 25.4887 15.8486 25.4787 15.895C25.4686 15.9415 25.4636 15.9912 25.4636 16.0441Z" fill="#737373"/>
<path d="M16.5328 22.47L15.875 22.3127L16.1124 20.2021H18.4518V20.8685H16.7902L16.6872 21.7922C16.7425 21.7598 16.8264 21.7255 16.9389 21.6893C17.0514 21.6511 17.1772 21.6321 17.3164 21.6321C17.5185 21.6321 17.6977 21.6635 17.8541 21.7264C18.0104 21.7894 18.1429 21.8809 18.2516 22.001C18.3622 22.1211 18.4461 22.2679 18.5033 22.4414C18.5605 22.6149 18.5891 22.8113 18.5891 23.0306C18.5891 23.2155 18.5605 23.3919 18.5033 23.5596C18.4461 23.7255 18.3593 23.8742 18.243 24.0058C18.1267 24.1354 17.9809 24.2375 17.8055 24.3118C17.63 24.3862 17.4222 24.4233 17.182 24.4233C17.0028 24.4233 16.8293 24.3967 16.6615 24.3433C16.4956 24.2899 16.3459 24.2108 16.2125 24.1059C16.0809 24.001 15.9751 23.8742 15.895 23.7255C15.8168 23.5749 15.7759 23.4033 15.772 23.2107H16.59C16.6014 23.3289 16.6319 23.431 16.6815 23.5167C16.733 23.6006 16.8007 23.6655 16.8846 23.7112C16.9684 23.757 17.0666 23.7799 17.1791 23.7799C17.284 23.7799 17.3736 23.7598 17.448 23.7198C17.5223 23.6798 17.5824 23.6245 17.6281 23.5539C17.6739 23.4815 17.7073 23.3976 17.7282 23.3023C17.7511 23.205 17.7626 23.1002 17.7626 22.9877C17.7626 22.8752 17.7492 22.7732 17.7225 22.6816C17.6958 22.5901 17.6548 22.511 17.5995 22.4443C17.5442 22.3775 17.4737 22.3261 17.3879 22.2898C17.304 22.2536 17.2058 22.2355 17.0933 22.2355C16.9408 22.2355 16.8226 22.2593 16.7387 22.307C16.6567 22.3547 16.5881 22.409 16.5328 22.47ZM21.9238 21.918V22.6388C21.9238 22.9514 21.8904 23.2212 21.8237 23.4481C21.7569 23.6731 21.6606 23.858 21.5348 24.0029C21.4109 24.1459 21.2631 24.2518 21.0915 24.3204C20.9199 24.389 20.7293 24.4233 20.5195 24.4233C20.3517 24.4233 20.1954 24.4024 20.0505 24.3604C19.9056 24.3166 19.775 24.2489 19.6587 24.1574C19.5443 24.0659 19.4451 23.9505 19.3613 23.8113C19.2793 23.6702 19.2164 23.5025 19.1725 23.308C19.1287 23.1135 19.1067 22.8904 19.1067 22.6388V21.918C19.1067 21.6054 19.1401 21.3375 19.2068 21.1144C19.2755 20.8894 19.3717 20.7054 19.4957 20.5624C19.6215 20.4194 19.7702 20.3146 19.9418 20.2478C20.1134 20.1792 20.3041 20.1449 20.5138 20.1449C20.6816 20.1449 20.837 20.1668 20.98 20.2107C21.1249 20.2526 21.2555 20.3184 21.3718 20.408C21.4881 20.4976 21.5872 20.613 21.6692 20.7541C21.7512 20.8932 21.8141 21.0601 21.858 21.2545C21.9018 21.4471 21.9238 21.6683 21.9238 21.918ZM21.0972 22.7474V21.8065C21.0972 21.6559 21.0887 21.5243 21.0715 21.4118C21.0562 21.2993 21.0324 21.204 21 21.1258C20.9676 21.0458 20.9275 20.9809 20.8799 20.9314C20.8322 20.8818 20.7779 20.8456 20.7169 20.8227C20.6559 20.7998 20.5882 20.7884 20.5138 20.7884C20.4204 20.7884 20.3374 20.8065 20.265 20.8427C20.1945 20.8789 20.1344 20.9371 20.0848 21.0172C20.0352 21.0953 19.9971 21.2002 19.9704 21.3318C19.9456 21.4614 19.9332 21.6197 19.9332 21.8065V22.7474C19.9332 22.8981 19.9409 23.0306 19.9561 23.145C19.9733 23.2594 19.9981 23.3575 20.0305 23.4395C20.0648 23.5196 20.1048 23.5854 20.1506 23.6369C20.1983 23.6864 20.2526 23.7227 20.3136 23.7455C20.3765 23.7684 20.4452 23.7799 20.5195 23.7799C20.611 23.7799 20.6921 23.7618 20.7626 23.7255C20.8351 23.6874 20.8961 23.6283 20.9457 23.5482C20.9971 23.4662 21.0353 23.3595 21.0601 23.2279C21.0848 23.0963 21.0972 22.9362 21.0972 22.7474ZM22.4729 21.2231V21.0029C22.4729 20.8446 22.5072 20.7007 22.5758 20.571C22.6445 20.4414 22.7455 20.3375 22.879 20.2593C23.0124 20.1811 23.1764 20.142 23.3709 20.142C23.5711 20.142 23.7379 20.1811 23.8714 20.2593C24.0067 20.3375 24.1078 20.4414 24.1745 20.571C24.2432 20.7007 24.2775 20.8446 24.2775 21.0029V21.2231C24.2775 21.3775 24.2432 21.5196 24.1745 21.6492C24.1078 21.7789 24.0077 21.8828 23.8742 21.9609C23.7408 22.0391 23.5758 22.0782 23.3795 22.0782C23.1812 22.0782 23.0143 22.0391 22.879 21.9609C22.7455 21.8828 22.6445 21.7789 22.5758 21.6492C22.5072 21.5196 22.4729 21.3775 22.4729 21.2231ZM23.0191 21.0029V21.2231C23.0191 21.2898 23.0315 21.3537 23.0563 21.4147C23.083 21.4738 23.123 21.5224 23.1764 21.5606C23.2317 21.5968 23.2984 21.6149 23.3766 21.6149C23.4586 21.6149 23.5253 21.5968 23.5768 21.5606C23.6283 21.5224 23.6664 21.4738 23.6912 21.4147C23.716 21.3537 23.7284 21.2898 23.7284 21.2231V21.0029C23.7284 20.9323 23.715 20.8675 23.6883 20.8084C23.6636 20.7474 23.6245 20.6988 23.5711 20.6625C23.5196 20.6244 23.4529 20.6053 23.3709 20.6053C23.2946 20.6053 23.2298 20.6244 23.1764 20.6625C23.123 20.6988 23.083 20.7474 23.0563 20.8084C23.0315 20.8675 23.0191 20.9323 23.0191 21.0029ZM24.4634 23.5654V23.3452C24.4634 23.1888 24.4977 23.0458 24.5663 22.9162C24.6369 22.7865 24.7389 22.6826 24.8723 22.6044C25.0077 22.5263 25.1736 22.4872 25.37 22.4872C25.5683 22.4872 25.7341 22.5263 25.8676 22.6044C26.0011 22.6826 26.1021 22.7865 26.1708 22.9162C26.2394 23.0458 26.2737 23.1888 26.2737 23.3452V23.5654C26.2737 23.7217 26.2394 23.8647 26.1708 23.9944C26.104 24.124 26.0039 24.2279 25.8705 24.3061C25.737 24.3843 25.5721 24.4233 25.3757 24.4233C25.1774 24.4233 25.0106 24.3843 24.8752 24.3061C24.7398 24.2279 24.6369 24.124 24.5663 23.9944C24.4977 23.8647 24.4634 23.7217 24.4634 23.5654ZM25.0125 23.3452V23.5654C25.0125 23.634 25.0277 23.6988 25.0582 23.7598C25.0888 23.8209 25.1307 23.8695 25.1841 23.9057C25.2394 23.9419 25.3032 23.96 25.3757 23.96C25.4672 23.96 25.5387 23.9419 25.5902 23.9057C25.6417 23.8695 25.6769 23.8209 25.696 23.7598C25.717 23.6988 25.7275 23.634 25.7275 23.5654V23.3452C25.7275 23.2765 25.7141 23.2126 25.6874 23.1535C25.6607 23.0925 25.6207 23.0439 25.5673 23.0077C25.5158 22.9695 25.4501 22.9505 25.37 22.9505C25.2899 22.9505 25.2232 22.9695 25.1698 23.0077C25.1183 23.0439 25.0792 23.0925 25.0525 23.1535C25.0258 23.2126 25.0125 23.2765 25.0125 23.3452ZM25.573 20.797L23.5396 24.0516L23.1392 23.8399L25.1726 20.5853L25.573 20.797Z" fill="#0A0A0A"/>
<defs>
<linearGradient id="paint0_linear_3552_762" x1="31.66" y1="20.5001" x2="50.8122" y2="38.4063" gradientUnits="userSpaceOnUse">
<stop stop-color="#FFCC00"/>
<stop offset="1" stop-color="#FFCC00" stop-opacity="0"/>
</linearGradient>
</defs>
</svg>
