<svg width="42" height="41" viewBox="0 0 42 41" fill="none" xmlns="http://www.w3.org/2000/svg">
<path d="M16.724 16.1257H16.9922C16.9836 16.2279 16.955 16.3191 16.9064 16.3992C16.8577 16.4785 16.7895 16.5411 16.7015 16.5868C16.6136 16.6326 16.5067 16.6555 16.3809 16.6555C16.2843 16.6555 16.1975 16.6383 16.1202 16.604C16.043 16.569 15.9769 16.5196 15.9218 16.456C15.8668 16.3917 15.8246 16.3141 15.7953 16.2233C15.7667 16.1325 15.7524 16.0309 15.7524 15.9187V15.7889C15.7524 15.6767 15.767 15.5751 15.7964 15.4843C15.8264 15.3935 15.8693 15.316 15.925 15.2516C15.9808 15.1865 16.0477 15.1369 16.1256 15.1025C16.2043 15.0682 16.2926 15.0511 16.3905 15.0511C16.5149 15.0511 16.62 15.0739 16.7058 15.1197C16.7916 15.1655 16.8581 15.2287 16.9053 15.3095C16.9532 15.3903 16.9825 15.4829 16.9932 15.5873H16.7251C16.718 15.5201 16.7022 15.4625 16.6779 15.4146C16.6543 15.3667 16.6193 15.3303 16.5728 15.3052C16.5264 15.2795 16.4656 15.2666 16.3905 15.2666C16.329 15.2666 16.2754 15.2781 16.2296 15.3009C16.1839 15.3238 16.1456 15.3574 16.1149 15.4018C16.0841 15.4461 16.0609 15.5008 16.0452 15.5658C16.0302 15.6302 16.0226 15.7038 16.0226 15.7868V15.9187C16.0226 15.9973 16.0294 16.0688 16.043 16.1332C16.0573 16.1968 16.0788 16.2515 16.1074 16.2973C16.1367 16.343 16.1739 16.3784 16.2189 16.4035C16.264 16.4285 16.3179 16.441 16.3809 16.441C16.4574 16.441 16.5192 16.4288 16.5664 16.4045C16.6143 16.3802 16.6504 16.3448 16.6747 16.2983C16.6997 16.2512 16.7162 16.1936 16.724 16.1257ZM17.1616 16.0667V16.042C17.1616 15.9584 17.1738 15.8808 17.1981 15.8093C17.2224 15.7371 17.2574 15.6745 17.3032 15.6216C17.3497 15.568 17.4061 15.5265 17.4726 15.4972C17.5398 15.4672 17.6156 15.4522 17.7 15.4522C17.7851 15.4522 17.8609 15.4672 17.9274 15.4972C17.9946 15.5265 18.0514 15.568 18.0979 15.6216C18.1444 15.6745 18.1797 15.7371 18.2041 15.8093C18.2284 15.8808 18.2405 15.9584 18.2405 16.042V16.0667C18.2405 16.1503 18.2284 16.2279 18.2041 16.2994C18.1797 16.3709 18.1444 16.4335 18.0979 16.4871C18.0514 16.54 17.9949 16.5815 17.9284 16.6115C17.8619 16.6408 17.7865 16.6555 17.7021 16.6555C17.6171 16.6555 17.5409 16.6408 17.4737 16.6115C17.4072 16.5815 17.3507 16.54 17.3043 16.4871C17.2578 16.4335 17.2224 16.3709 17.1981 16.2994C17.1738 16.2279 17.1616 16.1503 17.1616 16.0667ZM17.4201 16.042V16.0667C17.4201 16.1189 17.4254 16.1682 17.4362 16.2147C17.4469 16.2612 17.4637 16.3019 17.4866 16.337C17.5095 16.372 17.5388 16.3995 17.5745 16.4195C17.6103 16.4396 17.6528 16.4496 17.7021 16.4496C17.75 16.4496 17.7915 16.4396 17.8265 16.4195C17.8623 16.3995 17.8916 16.372 17.9145 16.337C17.9374 16.3019 17.9542 16.2612 17.9649 16.2147C17.9763 16.1682 17.9821 16.1189 17.9821 16.0667V16.042C17.9821 15.9905 17.9763 15.9419 17.9649 15.8962C17.9542 15.8497 17.937 15.8086 17.9134 15.7728C17.8905 15.7371 17.8612 15.7092 17.8255 15.6892C17.7904 15.6684 17.7486 15.6581 17.7 15.6581C17.6514 15.6581 17.6092 15.6684 17.5734 15.6892C17.5384 15.7092 17.5095 15.7371 17.4866 15.7728C17.4637 15.8086 17.4469 15.8497 17.4362 15.8962C17.4254 15.9419 17.4201 15.9905 17.4201 16.042ZM18.7156 15.7096V16.634H18.4572V15.4736H18.7006L18.7156 15.7096ZM18.6738 16.0109L18.5859 16.0099C18.5859 15.9298 18.5959 15.8558 18.6159 15.7879C18.6359 15.7199 18.6652 15.6609 18.7038 15.6109C18.7424 15.5601 18.7903 15.5212 18.8475 15.494C18.9055 15.4661 18.9723 15.4522 19.0481 15.4522C19.101 15.4522 19.1493 15.46 19.1929 15.4758C19.2372 15.4908 19.2755 15.5147 19.3076 15.5476C19.3405 15.5805 19.3655 15.6227 19.3827 15.6742C19.4006 15.7256 19.4095 15.7879 19.4095 15.8608V16.634H19.1511V15.8833C19.1511 15.8268 19.1425 15.7825 19.1253 15.7503C19.1089 15.7181 19.0849 15.6953 19.0535 15.6817C19.0227 15.6674 18.9859 15.6602 18.943 15.6602C18.8944 15.6602 18.8529 15.6695 18.8186 15.6881C18.785 15.7067 18.7575 15.7321 18.736 15.7643C18.7146 15.7964 18.6988 15.8336 18.6888 15.8758C18.6788 15.918 18.6738 15.963 18.6738 16.0109ZM19.3934 15.9423L19.2722 15.9691C19.2722 15.899 19.2819 15.8329 19.3012 15.7707C19.3212 15.7078 19.3502 15.6527 19.3881 15.6055C19.4267 15.5576 19.4742 15.5201 19.5307 15.4929C19.5872 15.4658 19.6519 15.4522 19.7248 15.4522C19.7842 15.4522 19.8371 15.4604 19.8836 15.4768C19.9307 15.4926 19.9708 15.5176 20.0037 15.5519C20.0366 15.5862 20.0616 15.6309 20.0787 15.686C20.0959 15.7403 20.1045 15.8061 20.1045 15.8833V16.634H19.8449V15.8822C19.8449 15.8236 19.8364 15.7782 19.8192 15.746C19.8028 15.7138 19.7792 15.6917 19.7484 15.6795C19.7177 15.6667 19.6809 15.6602 19.638 15.6602C19.5979 15.6602 19.5625 15.6677 19.5318 15.6827C19.5018 15.697 19.4764 15.7174 19.4556 15.7439C19.4349 15.7696 19.4192 15.7993 19.4084 15.8329C19.3984 15.8665 19.3934 15.903 19.3934 15.9423ZM20.63 15.6967V17.0802H20.3715V15.4736H20.6096L20.63 15.6967ZM21.3861 16.0431V16.0656C21.3861 16.15 21.3761 16.2283 21.3561 16.3005C21.3368 16.372 21.3078 16.4346 21.2692 16.4882C21.2313 16.5411 21.1845 16.5822 21.1287 16.6115C21.0729 16.6408 21.0086 16.6555 20.9357 16.6555C20.8634 16.6555 20.8002 16.6423 20.7458 16.6158C20.6922 16.5886 20.6468 16.5504 20.6096 16.501C20.5724 16.4517 20.5424 16.3938 20.5195 16.3273C20.4974 16.2601 20.4816 16.1865 20.4723 16.1064V16.0195C20.4816 15.9344 20.4974 15.8572 20.5195 15.7879C20.5424 15.7185 20.5724 15.6588 20.6096 15.6087C20.6468 15.5587 20.6922 15.5201 20.7458 15.4929C20.7994 15.4658 20.862 15.4522 20.9335 15.4522C21.0064 15.4522 21.0711 15.4665 21.1276 15.4951C21.1841 15.5229 21.2317 15.563 21.2703 15.6152C21.3089 15.6667 21.3378 15.7289 21.3571 15.8018C21.3764 15.874 21.3861 15.9544 21.3861 16.0431ZM21.1276 16.0656V16.0431C21.1276 15.9895 21.1226 15.9398 21.1126 15.894C21.1026 15.8476 21.0869 15.8068 21.0654 15.7718C21.044 15.7367 21.0164 15.7096 20.9828 15.6903C20.95 15.6702 20.9103 15.6602 20.8638 15.6602C20.818 15.6602 20.7787 15.6681 20.7458 15.6838C20.7129 15.6988 20.6854 15.7199 20.6632 15.7471C20.6411 15.7743 20.6239 15.8061 20.6118 15.8425C20.5996 15.8783 20.591 15.9173 20.586 15.9594V16.1675C20.5946 16.219 20.6093 16.2662 20.63 16.3091C20.6507 16.352 20.68 16.3863 20.7179 16.412C20.7565 16.4371 20.8059 16.4496 20.8659 16.4496C20.9124 16.4496 20.9521 16.4396 20.985 16.4195C21.0179 16.3995 21.0447 16.372 21.0654 16.337C21.0869 16.3012 21.1026 16.2601 21.1126 16.2136C21.1226 16.1671 21.1276 16.1178 21.1276 16.0656ZM21.8826 14.9867V16.634H21.6231V14.9867H21.8826ZM22.6774 16.6555C22.5916 16.6555 22.514 16.6415 22.4446 16.6137C22.376 16.5851 22.3174 16.5454 22.2687 16.4946C22.2208 16.4438 22.184 16.3841 22.1583 16.3155C22.1325 16.2469 22.1197 16.1729 22.1197 16.0935V16.0506C22.1197 15.9598 22.1329 15.8776 22.1593 15.8039C22.1858 15.7303 22.2226 15.6674 22.2698 15.6152C22.317 15.5623 22.3728 15.5219 22.4371 15.494C22.5015 15.4661 22.5712 15.4522 22.6462 15.4522C22.7292 15.4522 22.8018 15.4661 22.864 15.494C22.9262 15.5219 22.9776 15.5612 23.0184 15.612C23.0599 15.662 23.0906 15.7217 23.1106 15.7911C23.1314 15.8604 23.1417 15.9369 23.1417 16.0206V16.131H22.2451V15.9455H22.8865V15.9251C22.8851 15.8787 22.8758 15.835 22.8586 15.7943C22.8422 15.7535 22.8168 15.7206 22.7825 15.6956C22.7481 15.6706 22.7024 15.6581 22.6452 15.6581C22.6023 15.6581 22.564 15.6674 22.5304 15.686C22.4975 15.7038 22.47 15.7299 22.4478 15.7643C22.4257 15.7986 22.4085 15.84 22.3964 15.8887C22.3849 15.9366 22.3792 15.9905 22.3792 16.0506V16.0935C22.3792 16.1443 22.386 16.1915 22.3996 16.2351C22.4139 16.278 22.4346 16.3155 22.4618 16.3477C22.489 16.3799 22.5218 16.4052 22.5605 16.4238C22.5991 16.4417 22.643 16.4506 22.6924 16.4506C22.7546 16.4506 22.81 16.4381 22.8586 16.4131C22.9072 16.3881 22.9494 16.3527 22.9852 16.3069L23.1214 16.4388C23.0963 16.4753 23.0638 16.5103 23.0238 16.5439C22.9837 16.5768 22.9347 16.6036 22.8768 16.6244C22.8196 16.6451 22.7531 16.6555 22.6774 16.6555ZM23.8753 15.4736V15.6624H23.2211V15.4736H23.8753ZM23.4099 15.1894H23.6683V16.3134C23.6683 16.3491 23.6733 16.3766 23.6833 16.3959C23.6941 16.4145 23.7087 16.427 23.7273 16.4335C23.7459 16.4399 23.7677 16.4431 23.7927 16.4431C23.8106 16.4431 23.8278 16.4421 23.8442 16.4399C23.8606 16.4378 23.8739 16.4356 23.8839 16.4335L23.885 16.6308C23.8635 16.6373 23.8385 16.643 23.8099 16.648C23.782 16.653 23.7498 16.6555 23.7134 16.6555C23.654 16.6555 23.6015 16.6451 23.5557 16.6244C23.5099 16.6029 23.4742 16.5683 23.4485 16.5204C23.4227 16.4724 23.4099 16.4088 23.4099 16.3295V15.1894ZM24.5864 16.6555C24.5006 16.6555 24.423 16.6415 24.3536 16.6137C24.285 16.5851 24.2264 16.5454 24.1777 16.4946C24.1298 16.4438 24.093 16.3841 24.0673 16.3155C24.0415 16.2469 24.0287 16.1729 24.0287 16.0935V16.0506C24.0287 15.9598 24.0419 15.8776 24.0684 15.8039C24.0948 15.7303 24.1316 15.6674 24.1788 15.6152C24.226 15.5623 24.2818 15.5219 24.3461 15.494C24.4105 15.4661 24.4802 15.4522 24.5553 15.4522C24.6382 15.4522 24.7108 15.4661 24.773 15.494C24.8352 15.5219 24.8866 15.5612 24.9274 15.612C24.9689 15.662 24.9996 15.7217 25.0196 15.7911C25.0404 15.8604 25.0507 15.9369 25.0507 16.0206V16.131H24.1541V15.9455H24.7955V15.9251C24.7941 15.8787 24.7848 15.835 24.7676 15.7943C24.7512 15.7535 24.7258 15.7206 24.6915 15.6956C24.6571 15.6706 24.6114 15.6581 24.5542 15.6581C24.5113 15.6581 24.473 15.6674 24.4394 15.686C24.4065 15.7038 24.379 15.7299 24.3568 15.7643C24.3347 15.7986 24.3175 15.84 24.3054 15.8887C24.2939 15.9366 24.2882 15.9905 24.2882 16.0506V16.0935C24.2882 16.1443 24.295 16.1915 24.3086 16.2351C24.3229 16.278 24.3436 16.3155 24.3708 16.3477C24.398 16.3799 24.4308 16.4052 24.4695 16.4238C24.5081 16.4417 24.552 16.4506 24.6014 16.4506C24.6636 16.4506 24.719 16.4381 24.7676 16.4131C24.8162 16.3881 24.8584 16.3527 24.8942 16.3069L25.0304 16.4388C25.0053 16.4753 24.9728 16.5103 24.9328 16.5439C24.8927 16.5768 24.8437 16.6036 24.7858 16.6244C24.7286 16.6451 24.6621 16.6555 24.5864 16.6555ZM25.9602 16.3938V14.9867H26.2197V16.634H25.9849L25.9602 16.3938ZM25.2052 16.0667V16.0442C25.2052 15.9562 25.2155 15.8762 25.2363 15.8039C25.257 15.731 25.287 15.6684 25.3264 15.6163C25.3657 15.5633 25.4136 15.5229 25.4701 15.4951C25.5266 15.4665 25.5902 15.4522 25.661 15.4522C25.731 15.4522 25.7925 15.4658 25.8454 15.4929C25.8984 15.5201 25.9434 15.5591 25.9806 15.6098C26.0178 15.6599 26.0474 15.7199 26.0696 15.79C26.0918 15.8593 26.1075 15.9366 26.1168 16.0217V16.0935C26.1075 16.1764 26.0918 16.2522 26.0696 16.3209C26.0474 16.3895 26.0178 16.4489 25.9806 16.4989C25.9434 16.549 25.898 16.5876 25.8444 16.6147C25.7915 16.6419 25.7296 16.6555 25.6588 16.6555C25.5888 16.6555 25.5255 16.6408 25.469 16.6115C25.4132 16.5822 25.3657 16.5411 25.3264 16.4882C25.287 16.4353 25.257 16.3731 25.2363 16.3016C25.2155 16.2294 25.2052 16.1511 25.2052 16.0667ZM25.4636 16.0442V16.0667C25.4636 16.1196 25.4683 16.1689 25.4776 16.2147C25.4876 16.2605 25.503 16.3009 25.5237 16.3359C25.5444 16.3702 25.5712 16.3974 25.6041 16.4174C25.6377 16.4367 25.6778 16.4464 25.7243 16.4464C25.7829 16.4464 25.8311 16.4335 25.869 16.4077C25.9069 16.382 25.9366 16.3473 25.9581 16.3037C25.9802 16.2594 25.9952 16.21 26.0031 16.1557V15.9616C25.9988 15.9194 25.9899 15.8801 25.9763 15.8436C25.9634 15.8072 25.9459 15.7753 25.9237 15.7482C25.9016 15.7203 25.874 15.6988 25.8412 15.6838C25.809 15.6681 25.7707 15.6602 25.7264 15.6602C25.6792 15.6602 25.6392 15.6702 25.6063 15.6903C25.5734 15.7103 25.5462 15.7378 25.5248 15.7728C25.504 15.8079 25.4887 15.8486 25.4787 15.8951C25.4686 15.9416 25.4636 15.9913 25.4636 16.0442Z" fill="#737373"/>
<path d="M18.5862 20.2019V20.6452L16.9761 24.366H16.1067L17.7168 20.8454H15.6433V20.2019H18.5862ZM21.9695 23.7225V24.366H19.121V23.8169L20.4681 22.3726C20.6034 22.222 20.7102 22.0895 20.7884 21.9751C20.8665 21.8588 20.9228 21.7548 20.9571 21.6633C20.9933 21.5699 21.0114 21.4812 21.0114 21.3974C21.0114 21.2715 20.9905 21.1638 20.9485 21.0742C20.9066 20.9827 20.8446 20.9121 20.7626 20.8625C20.6825 20.813 20.5834 20.7882 20.4652 20.7882C20.3394 20.7882 20.2307 20.8187 20.1392 20.8797C20.0495 20.9407 19.9809 21.0256 19.9332 21.1342C19.8875 21.2429 19.8646 21.3659 19.8646 21.5032H19.0381C19.0381 21.2553 19.0972 21.0284 19.2154 20.8225C19.3336 20.6147 19.5004 20.4498 19.7159 20.3277C19.9313 20.2038 20.1868 20.1418 20.4824 20.1418C20.7741 20.1418 21.02 20.1895 21.2202 20.2848C21.4223 20.3783 21.5748 20.5136 21.6778 20.691C21.7827 20.8664 21.8351 21.0761 21.8351 21.3201C21.8351 21.4574 21.8132 21.5918 21.7693 21.7234C21.7255 21.853 21.6626 21.9827 21.5806 22.1123C21.5005 22.2401 21.4033 22.3697 21.2889 22.5013C21.1745 22.6328 21.0477 22.7692 20.9085 22.9103L20.1849 23.7225H21.9695ZM22.4729 21.2229V21.0027C22.4729 20.8444 22.5072 20.7005 22.5758 20.5708C22.6445 20.4412 22.7455 20.3373 22.879 20.2591C23.0124 20.1809 23.1764 20.1418 23.3709 20.1418C23.5711 20.1418 23.7379 20.1809 23.8714 20.2591C24.0067 20.3373 24.1078 20.4412 24.1745 20.5708C24.2432 20.7005 24.2775 20.8444 24.2775 21.0027V21.2229C24.2775 21.3773 24.2432 21.5194 24.1745 21.649C24.1078 21.7787 24.0077 21.8826 23.8742 21.9608C23.7408 22.0389 23.5758 22.078 23.3795 22.078C23.1812 22.078 23.0143 22.0389 22.879 21.9608C22.7455 21.8826 22.6445 21.7787 22.5758 21.649C22.5072 21.5194 22.4729 21.3773 22.4729 21.2229ZM23.0191 21.0027V21.2229C23.0191 21.2896 23.0315 21.3535 23.0563 21.4145C23.083 21.4736 23.123 21.5222 23.1764 21.5604C23.2317 21.5966 23.2984 21.6147 23.3766 21.6147C23.4586 21.6147 23.5253 21.5966 23.5768 21.5604C23.6283 21.5222 23.6664 21.4736 23.6912 21.4145C23.716 21.3535 23.7284 21.2896 23.7284 21.2229V21.0027C23.7284 20.9321 23.715 20.8673 23.6883 20.8082C23.6636 20.7472 23.6245 20.6986 23.5711 20.6624C23.5196 20.6242 23.4529 20.6052 23.3709 20.6052C23.2946 20.6052 23.2298 20.6242 23.1764 20.6624C23.123 20.6986 23.083 20.7472 23.0563 20.8082C23.0315 20.8673 23.0191 20.9321 23.0191 21.0027ZM24.4634 23.5652V23.345C24.4634 23.1886 24.4977 23.0456 24.5663 22.916C24.6369 22.7863 24.7389 22.6824 24.8723 22.6042C25.0077 22.5261 25.1736 22.487 25.37 22.487C25.5683 22.487 25.7341 22.5261 25.8676 22.6042C26.0011 22.6824 26.1021 22.7863 26.1708 22.916C26.2394 23.0456 26.2737 23.1886 26.2737 23.345V23.5652C26.2737 23.7215 26.2394 23.8645 26.1708 23.9942C26.104 24.1238 26.0039 24.2277 25.8705 24.3059C25.737 24.3841 25.5721 24.4232 25.3757 24.4232C25.1774 24.4232 25.0106 24.3841 24.8752 24.3059C24.7398 24.2277 24.6369 24.1238 24.5663 23.9942C24.4977 23.8645 24.4634 23.7215 24.4634 23.5652ZM25.0125 23.345V23.5652C25.0125 23.6338 25.0277 23.6986 25.0582 23.7597C25.0888 23.8207 25.1307 23.8693 25.1841 23.9055C25.2394 23.9417 25.3032 23.9599 25.3757 23.9599C25.4672 23.9599 25.5387 23.9417 25.5902 23.9055C25.6417 23.8693 25.6769 23.8207 25.696 23.7597C25.717 23.6986 25.7275 23.6338 25.7275 23.5652V23.345C25.7275 23.2763 25.7141 23.2125 25.6874 23.1534C25.6607 23.0923 25.6207 23.0437 25.5673 23.0075C25.5158 22.9694 25.4501 22.9503 25.37 22.9503C25.2899 22.9503 25.2232 22.9694 25.1698 23.0075C25.1183 23.0437 25.0792 23.0923 25.0525 23.1534C25.0258 23.2125 25.0125 23.2763 25.0125 23.345ZM25.573 20.7968L23.5396 24.0514L23.1392 23.8397L25.1726 20.5851L25.573 20.7968Z" fill="#0A0A0A"/>
<path d="M41.5 20.5C41.5 31.8218 32.3218 41 21 41C9.67816 41 0.5 31.8218 0.5 20.5C0.5 9.17816 9.67816 0 21 0C32.3218 0 41.5 9.17816 41.5 20.5ZM4.6 20.5C4.6 29.5575 11.9425 36.9 21 36.9C30.0575 36.9 37.4 29.5575 37.4 20.5C37.4 11.4425 30.0575 4.1 21 4.1C11.9425 4.1 4.6 11.4425 4.6 20.5Z" fill="#FFFCF0"/>
<path d="M21 0C24.7807 4.50839e-08 28.4877 1.04549 31.7112 3.02088C34.9348 4.99626 37.5493 7.8246 39.2656 11.1932C40.982 14.5618 41.7334 18.3394 41.4368 22.1084C41.1402 25.8774 39.8071 29.491 37.5849 32.5496C35.3626 35.6082 32.3379 37.9927 28.845 39.4395C25.3521 40.8863 21.5272 41.339 17.7931 40.7476C14.059 40.1562 10.5612 38.5437 7.68632 36.0883C4.81148 33.633 2.67163 30.4305 1.50334 26.8349L5.40267 25.5679C6.3373 28.4444 8.04919 31.0064 10.3491 32.9707C12.6489 34.9349 15.4472 36.2249 18.4345 36.6981C21.4218 37.1712 24.4817 36.8091 27.276 35.6516C30.0703 34.4942 32.4901 32.5866 34.2679 30.1397C36.0457 27.6928 37.1121 24.8019 37.3494 21.7867C37.5867 18.7715 36.9856 15.7494 35.6125 13.0546C34.2394 10.3597 32.1478 8.09701 29.569 6.5167C26.9901 4.93639 24.0245 4.1 21 4.1V0Z" fill="url(#paint0_linear_3644_8847)"/>
<defs>
<linearGradient id="paint0_linear_3644_8847" x1="31.66" y1="20.5" x2="50.8122" y2="38.4063" gradientUnits="userSpaceOnUse">
<stop stop-color="#FFCC00"/>
<stop offset="1" stop-color="#FFCC00" stop-opacity="0"/>
</linearGradient>
</defs>
</svg>
