<svg width="14" height="11" viewBox="0 0 14 11" fill="none" xmlns="http://www.w3.org/2000/svg">
<path d="M5.21677 10.4999C5.1025 10.4996 4.98954 10.4757 4.88489 10.4298C4.78023 10.3839 4.68614 10.317 4.60844 10.2333L0.558435 5.92493C0.407041 5.76359 0.325939 5.54871 0.332972 5.32758C0.340005 5.10644 0.434595 4.89715 0.595935 4.74576C0.757275 4.59436 0.972149 4.51326 1.19329 4.5203C1.41442 4.52733 1.62371 4.62192 1.7751 4.78326L5.20844 8.44159L12.2168 0.774925C12.2879 0.686361 12.3764 0.613271 12.4768 0.560145C12.5772 0.507019 12.6874 0.474978 12.8006 0.465991C12.9138 0.457004 13.0277 0.471261 13.1352 0.507885C13.2427 0.544509 13.3416 0.602727 13.4258 0.678964C13.51 0.7552 13.5778 0.847846 13.6249 0.951211C13.672 1.05458 13.6974 1.16648 13.6997 1.28004C13.702 1.39361 13.681 1.50644 13.6381 1.6116C13.5952 1.71677 13.5312 1.81205 13.4501 1.89159L5.83344 10.2249C5.75647 10.3102 5.6627 10.3787 5.55801 10.426C5.45332 10.4733 5.33998 10.4985 5.2251 10.4999H5.21677Z" fill="#313239"/>
</svg>
