<svg width="24" height="21" viewBox="0 0 24 21" fill="none" xmlns="http://www.w3.org/2000/svg">
<path d="M16.2031 13.9766L17.4531 12.7266C17.6484 12.5312 18 12.6875 18 12.9609V18.625C18 19.6797 17.1406 20.5 16.125 20.5H2.375C1.32031 20.5 0.5 19.6797 0.5 18.625V4.875C0.5 3.85938 1.32031 3 2.375 3H13.0391C13.3125 3 13.4688 3.35156 13.2734 3.54688L12.0234 4.79688C11.9453 4.875 11.8672 4.875 11.7891 4.875H2.375V18.625H16.125V14.2109C16.125 14.1328 16.125 14.0547 16.2031 13.9766ZM22.2969 6.125L12.0625 16.3594L8.50781 16.75C7.49219 16.8672 6.63281 16.0078 6.75 14.9922L7.14062 11.4375L17.375 1.20312C18.2734 0.304688 19.7188 0.304688 20.6172 1.20312L22.2969 2.88281C23.1953 3.78125 23.1953 5.22656 22.2969 6.125ZM18.4688 7.29688L16.2031 5.03125L8.9375 12.2969L8.625 14.875L11.2031 14.5625L18.4688 7.29688ZM20.9688 4.21094L19.2891 2.53125C19.1328 2.33594 18.8594 2.33594 18.7031 2.53125L17.5312 3.70312L19.7969 6.00781L21.0078 4.79688C21.1641 4.60156 21.1641 4.36719 20.9688 4.21094Z" fill="#E17C41"/>
</svg>
