<svg width="20" height="17" viewBox="0 0 20 17" fill="none" xmlns="http://www.w3.org/2000/svg">
<path d="M17 0.791748H2.99999C2.20434 0.791748 1.44128 1.10782 0.878672 1.67043C0.316063 2.23304 -7.62939e-06 2.9961 -7.62939e-06 3.79175V13.7917C-7.62939e-06 14.5874 0.316063 15.3505 0.878672 15.9131C1.44128 16.4757 2.20434 16.7917 2.99999 16.7917H17C17.7956 16.7917 18.5587 16.4757 19.1213 15.9131C19.6839 15.3505 20 14.5874 20 13.7917V3.79175C20 2.9961 19.6839 2.23304 19.1213 1.67043C18.5587 1.10782 17.7956 0.791748 17 0.791748ZM16.33 2.79175L9.99999 7.54175L3.66999 2.79175H16.33ZM17 14.7917H2.99999C2.73478 14.7917 2.48042 14.6864 2.29289 14.4989C2.10535 14.3113 1.99999 14.057 1.99999 13.7917V4.04175L9.39999 9.59175C9.57309 9.72157 9.78362 9.79175 9.99999 9.79175C10.2164 9.79175 10.4269 9.72157 10.6 9.59175L18 4.04175V13.7917C18 14.057 17.8946 14.3113 17.7071 14.4989C17.5196 14.6864 17.2652 14.7917 17 14.7917Z" fill="#C4C5C5"/>
</svg>
