<svg width="15" height="15" viewBox="0 0 15 15" fill="none" xmlns="http://www.w3.org/2000/svg">
<path d="M13.0415 6C13.5728 6 14.0415 6.46875 14.0415 7V8C14.0415 8.5625 13.5728 9 13.0415 9H8.5415V13.5C8.5415 14.0625 8.07275 14.5 7.5415 14.5H6.5415C5.979 14.5 5.5415 14.0625 5.5415 13.5V9H1.0415C0.479004 9 0.0415039 8.5625 0.0415039 8V7C0.0415039 6.46875 0.479004 6 1.0415 6H5.5415V1.5C5.5415 0.96875 5.979 0.5 6.5415 0.5H7.5415C8.07275 0.5 8.5415 0.96875 8.5415 1.5V6H13.0415Z" fill="#E17C41"/>
</svg>
