<svg width="36" height="37" viewBox="0 0 36 37" fill="none" xmlns="http://www.w3.org/2000/svg">
<path d="M20.1677 19.2215C20.1677 20.5133 19.0912 21.518 17.8713 21.518C16.5795 21.518 15.5749 20.5133 15.5749 19.2215V3.14668C15.5749 1.92671 16.5795 0.850266 17.8713 0.850266C19.0912 0.850266 20.1677 1.92671 20.1677 3.14668V19.2215ZM5.24102 19.2215C5.24102 26.2543 10.8385 31.8518 17.8713 31.8518C24.8323 31.8518 30.5015 26.2543 30.5015 19.2215C30.5015 15.3464 28.7075 11.83 25.9087 9.53356C24.904 8.74417 24.8323 7.30892 25.6217 6.30424C26.4111 5.29956 27.8463 5.2278 28.851 6.01719C32.6544 9.17475 35.0943 13.9111 35.0943 19.2215C35.0943 28.766 27.344 36.4446 17.8713 36.4446C8.32682 36.4446 0.648205 28.766 0.648205 19.2215C0.648205 13.9111 3.01638 9.17475 6.81981 6.01719C7.82448 5.2278 9.25974 5.29956 10.0491 6.30424C10.8385 7.30892 10.7668 8.74417 9.76208 9.53356C6.96333 11.83 5.24102 15.3464 5.24102 19.2215Z" fill="#5F9BAB"/>
</svg>
