<svg width="54" height="39" viewBox="0 0 54 39" fill="none" xmlns="http://www.w3.org/2000/svg">
<g opacity="0.2" filter="url(#filter0_i_3769_2375)">
<rect x="7.5" y="5.5" width="46" height="24" rx="12" fill="#E17C41"/>
<rect x="7.5" y="5.5" width="46" height="24" rx="12" stroke="#E17C41"/>
</g>
<g filter="url(#filter1_d_3769_2375)">
<path d="M19.5 28.5C25.5751 28.5 30.5 23.5751 30.5 17.5C30.5 11.4249 25.5751 6.5 19.5 6.5C13.4249 6.5 8.5 11.4249 8.5 17.5C8.5 23.5751 13.4249 28.5 19.5 28.5Z" fill="#FBFCFC"/>
<path d="M19.5 28.5C25.5751 28.5 30.5 23.5751 30.5 17.5C30.5 11.4249 25.5751 6.5 19.5 6.5C13.4249 6.5 8.5 11.4249 8.5 17.5C8.5 23.5751 13.4249 28.5 19.5 28.5Z" stroke="#E17C41"/>
</g>
<defs>
<filter id="filter0_i_3769_2375" x="7.5" y="5.5" width="46" height="25" filterUnits="userSpaceOnUse" color-interpolation-filters="sRGB">
<feFlood flood-opacity="0" result="BackgroundImageFix"/>
<feBlend mode="normal" in="SourceGraphic" in2="BackgroundImageFix" result="shape"/>
<feColorMatrix in="SourceAlpha" type="matrix" values="0 0 0 0 0 0 0 0 0 0 0 0 0 0 0 0 0 0 127 0" result="hardAlpha"/>
<feOffset dy="1"/>
<feGaussianBlur stdDeviation="1.5"/>
<feComposite in2="hardAlpha" operator="arithmetic" k2="-1" k3="1"/>
<feColorMatrix type="matrix" values="0 0 0 0 0 0 0 0 0 0 0 0 0 0 0 0 0 0 0.1 0"/>
<feBlend mode="normal" in2="shape" result="effect1_innerShadow_3769_2375"/>
</filter>
<filter id="filter1_d_3769_2375" x="0.5" y="0.5" width="38" height="38" filterUnits="userSpaceOnUse" color-interpolation-filters="sRGB">
<feFlood flood-opacity="0" result="BackgroundImageFix"/>
<feColorMatrix in="SourceAlpha" type="matrix" values="0 0 0 0 0 0 0 0 0 0 0 0 0 0 0 0 0 0 127 0" result="hardAlpha"/>
<feOffset dy="2"/>
<feGaussianBlur stdDeviation="4"/>
<feColorMatrix type="matrix" values="0 0 0 0 0 0 0 0 0 0 0 0 0 0 0 0 0 0 0.15 0"/>
<feBlend mode="normal" in2="BackgroundImageFix" result="effect1_dropShadow_3769_2375"/>
<feBlend mode="normal" in="SourceGraphic" in2="effect1_dropShadow_3769_2375" result="shape"/>
</filter>
</defs>
</svg>
