<svg width="18" height="20" viewBox="0 0 18 20" fill="none" xmlns="http://www.w3.org/2000/svg">
<path d="M17.375 1.25C17.6875 1.25 18 1.5625 18 1.875V3.125C18 3.47656 17.6875 3.75 17.375 3.75H1.125C0.773438 3.75 0.5 3.47656 0.5 3.125V1.875C0.5 1.5625 0.773438 1.25 1.125 1.25H5.8125L6.16406 0.546875C6.32031 0.234375 6.63281 0 6.98438 0H11.4766C11.8281 0 12.1406 0.234375 12.2969 0.546875L12.6875 1.25H17.375ZM2.57031 18.2422L1.75 5H16.75L15.8906 18.2422C15.8516 19.2578 15.0312 20 14.0156 20H4.44531C3.42969 20 2.60938 19.2578 2.57031 18.2422Z" fill="#E17C41"/>
</svg>
